<svg id="kity_svg_2" xmlns="http://www.w3.org/2000/svg" xmlns:xlink="http://www.w3.org/1999/xlink" width="1296" height="428" contenteditable="true" style="font-family: Arial, &quot;Microsoft Yahei&quot;,  &quot;Heiti SC&quot;; background: #3A4144 url(themes/default/images/grid.png) repeat" viewBox="41 -2 1296 428"><defs id="kity_defs_3"><marker id="kity_marker_0" orient="auto" refX="6" refY="0" viewBox="-7 -7 14 14" markerWidth="7" markerHeight="7" markerUnits="userSpaceOnUse"><path id="kity_path_1" fill="white" stroke="none" d="M6,0A6,6,0,1,1,-6,0A6,6,0,1,1,6,0"></path></marker></defs><g id="kity_g_4" transform="translate(0.5, 0.5)"><g id="minder_1" text-rendering="optimize-speed" transform="matrix( 1 0 0 1 674 317 )"><g id="minder_connect_group_1"><path id="kity_path_19" fill="none" stroke="white" stroke-width="2" marker-end="url(#kity_marker_0)" d="M48 -56.5A485,227.5,0,0,1,533 -284"></path><path id="kity_path_22" fill="none" stroke="white" stroke-width="2" marker-end="url(#kity_marker_0)" d="M48 -56.5A105,125.5,0,0,0,153 69"></path><path id="kity_path_24" fill="none" stroke="white" stroke-width="2" marker-end="url(#kity_marker_0)" d="M48 -56.5A189,41.5,0,0,1,237 -98"></path><path id="kity_path_26" fill="none" stroke="white" stroke-width="2" marker-end="url(#kity_marker_0)" d="M48 -56.5A178,117.5,0,0,1,-130 61"></path><path id="kity_path_28" fill="none" stroke="white" stroke-width="2" marker-end="url(#kity_marker_0)" d="M48 -56.5A221,0.5,0,0,1,-173 -56"></path><path id="kity_path_30" fill="none" stroke="white" stroke-width="2" d="M-289 -55.5C-304,-55.5,-304,-39.5,-319 -39.5L-397 -39.5"></path><path id="kity_path_32" fill="none" stroke="white" stroke-width="2" d="M-397 -39.5C-412,-39.5,-412,-39.5,-427 -39.5L-505 -39.5"></path><path id="kity_path_34" fill="none" stroke="white" stroke-width="2" d="M-505 -39.5C-520,-39.5,-520,-39.5,-535 -39.5L-613 -39.5"></path><path id="kity_path_36" fill="none" stroke="white" stroke-width="2" marker-end="url(#kity_marker_0)" d="M48 -56.5A221,70.5,0,0,1,-173 14"></path></g><g id="minder_node_1" transform="matrix( 1 0 0 1 0 0 )"><path id="kity_path_119" fill="rgba(0, 0, 0, .25)" stroke="none" d="M-21,-137h146a30,30,0,0,1,30,30v111a30,30,0,0,1,-30,30h-146a30,30,0,0,1,-30,-30v-111a30,30,0,0,1,30,-30z"></path><path id="node_outline_1" fill="#e9df98" stroke="#e9df98" d="M-25,-142h146a30,30,0,0,1,30,30v111a30,30,0,0,1,-30,30h-146a30,30,0,0,1,-30,-30v-111a30,30,0,0,1,30,-30z" stroke-width="3"></path><text id="node_text_1" text-rendering="inherit" dy="7.5" fill="#430" font-size="24" style="cursor: default;">中心主题</text><image id="kity_image_46" xlink:href="http://ueditor.baidu.com/website/images/des-all.png" x="-30" y="-127" width="156" height="104"></image><path id="_kity_selection" fill="rgb(0, 61, 102)" stroke="none" d="M0,0h0v0h0z" opacity="0.5" style="display: none; cursor: text;"></path></g><g id="kity_g_7"><path id="kity_path_8" fill="none" stroke="none" d="M0,0h0v0h0z"></path></g><g id="kity_g_9"><path id="kity_path_10" fill="none" stroke="none" d="M0,0h0v0h0z"></path><path id="kity_path_11" fill="none" stroke="none"></path></g><g id="minder_node_4" transform="matrix( 1 0 0 1 555 -284 )"><path id="kity_path_113" fill="rgba(0, 0, 0, .25)" stroke="none" d="M-6,-10h84a10,10,0,0,1,10,10v10a10,10,0,0,1,-10,10h-84a10,10,0,0,1,-10,-10v-10a10,10,0,0,1,10,-10z"></path><g id="node_expander_1" transform="translate( 0 0 )" style="cursor: pointer;" display="none"><path id="kity_path_57" fill="white" stroke="gray" d="M5,0A5,5,0,1,1,-5,0A5,5,0,1,1,5,0"></path><path id="kity_path_58" fill="none" stroke="black"></path></g><path id="node_outline_2" fill="#a4c5c0" stroke="#a4c5c0" d="M-10,-15h84a10,10,0,0,1,10,10v10a10,10,0,0,1,-10,10h-84a10,10,0,0,1,-10,-10v-10a10,10,0,0,1,10,-10z" stroke-width="1"></path><text id="node_text_2" text-rendering="inherit" dy="6" fill="#333" font-size="16">分支主题</text></g><g id="minder_node_5" transform="matrix( 1 0 0 1 175 69 )"><path id="kity_path_114" fill="rgba(0, 0, 0, .25)" stroke="none" d="M-6,-10h84a10,10,0,0,1,10,10v10a10,10,0,0,1,-10,10h-84a10,10,0,0,1,-10,-10v-10a10,10,0,0,1,10,-10z"></path><g id="node_expander_2" transform="translate( 0 0 )" style="cursor: pointer;" display="none"><path id="kity_path_60" fill="white" stroke="gray" d="M5,0A5,5,0,1,1,-5,0A5,5,0,1,1,5,0"></path><path id="kity_path_61" fill="none" stroke="black"></path></g><path id="node_outline_3" fill="#a4c5c0" stroke="#a4c5c0" d="M-10,-15h84a10,10,0,0,1,10,10v10a10,10,0,0,1,-10,10h-84a10,10,0,0,1,-10,-10v-10a10,10,0,0,1,10,-10z" stroke-width="1"></path><text id="node_text_3" text-rendering="inherit" dy="6" fill="#333" font-size="16">分支主题</text></g><g id="minder_node_6" transform="matrix( 1 0 0 1 259 -98 )"><path id="kity_path_115" fill="rgba(0, 0, 0, .25)" stroke="none" d="M-6,-10h84a10,10,0,0,1,10,10v10a10,10,0,0,1,-10,10h-84a10,10,0,0,1,-10,-10v-10a10,10,0,0,1,10,-10z"></path><g id="node_expander_3" transform="translate( 0 0 )" style="cursor: pointer;" display="none"><path id="kity_path_63" fill="white" stroke="gray" d="M5,0A5,5,0,1,1,-5,0A5,5,0,1,1,5,0"></path><path id="kity_path_64" fill="none" stroke="black"></path></g><path id="node_outline_4" fill="#a4c5c0" stroke="#a4c5c0" d="M-10,-15h84a10,10,0,0,1,10,10v10a10,10,0,0,1,-10,10h-84a10,10,0,0,1,-10,-10v-10a10,10,0,0,1,10,-10z" stroke-width="1"></path><text id="node_text_4" text-rendering="inherit" dy="6" fill="#333" font-size="16">分支主题</text></g><g id="minder_node_7" transform="matrix( 1 0 0 1 -216 61 )"><path id="kity_path_116" fill="rgba(0, 0, 0, .25)" stroke="none" d="M-6,-10h84a10,10,0,0,1,10,10v10a10,10,0,0,1,-10,10h-84a10,10,0,0,1,-10,-10v-10a10,10,0,0,1,10,-10z"></path><g id="node_expander_4" transform="translate( 0 0 )" style="cursor: pointer;" display="none"><path id="kity_path_66" fill="white" stroke="gray" d="M5,0A5,5,0,1,1,-5,0A5,5,0,1,1,5,0"></path><path id="kity_path_67" fill="none" stroke="black"></path></g><path id="node_outline_5" fill="#a4c5c0" stroke="#a4c5c0" d="M-10,-15h84a10,10,0,0,1,10,10v10a10,10,0,0,1,-10,10h-84a10,10,0,0,1,-10,-10v-10a10,10,0,0,1,10,-10z" stroke-width="1"></path><text id="node_text_5" text-rendering="inherit" dy="6" fill="#333" font-size="16">分支主题</text></g><g id="minder_node_8" transform="matrix( 1 0 0 1 -259 -56 )"><path id="kity_path_117" fill="rgba(0, 0, 0, .25)" stroke="none" d="M-6,-10h84a10,10,0,0,1,10,10v10a10,10,0,0,1,-10,10h-84a10,10,0,0,1,-10,-10v-10a10,10,0,0,1,10,-10z"></path><g id="node_expander_8" transform="translate( -25 0 )" style="cursor: pointer;"><path id="kity_path_78" fill="white" stroke="gray" d="M5,0A5,5,0,1,1,-5,0A5,5,0,1,1,5,0"></path><path id="kity_path_79" fill="none" stroke="black" d="M-3.5,0L3.5,0"></path></g><path id="node_outline_9" fill="#a4c5c0" stroke="#a4c5c0" d="M-10,-15h84a10,10,0,0,1,10,10v10a10,10,0,0,1,-10,10h-84a10,10,0,0,1,-10,-10v-10a10,10,0,0,1,10,-10z" stroke-width="1"></path><text id="node_text_9" text-rendering="inherit" dy="6" fill="#333" font-size="16">分支主题</text></g><g id="minder_node_9" transform="matrix( 1 0 0 1 -377 -56 )"><g id="node_expander_7" transform="translate( -15 0.5 )" style="cursor: pointer;"><path id="kity_path_75" fill="white" stroke="gray" d="M5,0A5,5,0,1,1,-5,0A5,5,0,1,1,5,0"></path><path id="kity_path_76" fill="none" stroke="black" d="M-3.5,0L3.5,0"></path></g><path id="node_outline_8" fill="none" stroke="none" d="M-5,-12h58a5,5,0,0,1,5,5v15a5,5,0,0,1,-5,5h-58a5,5,0,0,1,-5,-5v-15a5,5,0,0,1,5,-5z"></path><text id="node_text_8" text-rendering="inherit" dy="4.5" fill="white" font-size="12">分支主题</text></g><g id="minder_node_10" transform="matrix( 1 0 0 1 -485 -56 )"><g id="node_expander_6" transform="translate( -15 0.5 )" style="cursor: pointer;"><path id="kity_path_72" fill="white" stroke="gray" d="M5,0A5,5,0,1,1,-5,0A5,5,0,1,1,5,0"></path><path id="kity_path_73" fill="none" stroke="black" d="M-3.5,0L3.5,0"></path></g><path id="node_outline_7" fill="none" stroke="none" d="M-5,-12h58a5,5,0,0,1,5,5v15a5,5,0,0,1,-5,5h-58a5,5,0,0,1,-5,-5v-15a5,5,0,0,1,5,-5z"></path><text id="node_text_7" text-rendering="inherit" dy="4.5" fill="white" font-size="12">分支主题</text></g><g id="minder_node_11" transform="matrix( 1 0 0 1 -593 -56 )"><g id="node_expander_5" transform="translate( 0 0 )" style="cursor: pointer;" display="none"><path id="kity_path_69" fill="white" stroke="gray" d="M5,0A5,5,0,1,1,-5,0A5,5,0,1,1,5,0"></path><path id="kity_path_70" fill="none" stroke="black"></path></g><path id="node_outline_6" fill="none" stroke="none" d="M-5,-12h58a5,5,0,0,1,5,5v15a5,5,0,0,1,-5,5h-58a5,5,0,0,1,-5,-5v-15a5,5,0,0,1,5,-5z"></path><text id="node_text_6" text-rendering="inherit" dy="4.5" fill="white" font-size="12">分支主题</text></g><g id="minder_node_12" transform="matrix( 1 0 0 1 -259 14 )"><path id="kity_path_118" fill="rgba(0, 0, 0, .25)" stroke="none" d="M-6,-10h84a10,10,0,0,1,10,10v10a10,10,0,0,1,-10,10h-84a10,10,0,0,1,-10,-10v-10a10,10,0,0,1,10,-10z"></path><g id="node_expander_9" transform="translate( 0 0 )" style="cursor: pointer;" display="none"><path id="kity_path_81" fill="white" stroke="gray" d="M5,0A5,5,0,1,1,-5,0A5,5,0,1,1,5,0"></path><path id="kity_path_82" fill="none" stroke="black"></path></g><path id="node_outline_10" fill="#a4c5c0" stroke="#a4c5c0" d="M-10,-15h84a10,10,0,0,1,10,10v10a10,10,0,0,1,-10,10h-84a10,10,0,0,1,-10,-10v-10a10,10,0,0,1,10,-10z" stroke-width="1"></path><text id="node_text_10" text-rendering="inherit" dy="6" fill="#333" font-size="16">分支主题</text></g></g></g></svg>