<svg id="kity_svg_2" xmlns="http://www.w3.org/2000/svg" xmlns:xlink="http://www.w3.org/1999/xlink" width="712" height="503" contenteditable="true" style="font-family: Arial, &quot;Microsoft Yahei&quot;,  &quot;Heiti SC&quot;; background: #fbfbfb" viewBox="388 58 712 503"><defs id="kity_defs_3"><marker id="kity_marker_0" orient="auto" refX="6" refY="0" viewBox="-7 -7 14 14" markerWidth="7" markerHeight="7" markerUnits="userSpaceOnUse"><path id="kity_path_1" fill="rgb(115, 161, 191)" stroke="none" d="M6,0A6,6,0,1,1,-6,0A6,6,0,1,1,6,0"></path></marker></defs><g id="kity_g_4" transform="translate(0.5, 0.5)"><g id="minder_1" text-rendering="optimize-speed" transform="matrix( 1 0 0 1 648 396.99999999999994 )"><g id="minder_connect_group_1"><path id="kity_path_19" fill="none" stroke="rgb(115, 161, 191)" stroke-width="1" marker-end="url(#kity_marker_0)" d="M46 0.5A138,172.5,0,0,1,184 -172"></path><path id="kity_path_22" fill="none" stroke="rgb(115, 161, 191)" stroke-width="1" d="M264 -172C279,-172,279,-292,294 -292L348 -292"></path><path id="kity_path_24" fill="none" stroke="rgb(115, 161, 191)" stroke-width="1" d="M348 -292C363,-292,363,-292,378 -292L432 -292"></path><path id="kity_path_26" fill="none" stroke="rgb(115, 161, 191)" stroke-width="1" d="M264 -172C279,-172,279,-238,294 -238L348 -238"></path><path id="kity_path_28" fill="none" stroke="rgb(115, 161, 191)" stroke-width="1" d="M264 -172C279,-172,279,-184,294 -184L348 -184"></path><path id="kity_path_30" fill="none" stroke="rgb(115, 161, 191)" stroke-width="1" d="M264 -172C279,-172,279,-130,294 -130L348 -130"></path><path id="kity_path_32" fill="none" stroke="rgb(115, 161, 191)" stroke-width="1" d="M264 -172C279,-172,279,-76,294 -76L348 -76"></path><path id="kity_path_34" fill="none" stroke="rgb(115, 161, 191)" stroke-width="1" d="M264 -172C279,-172,279,-22,294 -22L360 -22"></path><path id="kity_path_36" fill="none" stroke="rgb(115, 161, 191)" stroke-width="1" marker-end="url(#kity_marker_0)" d="M46 0.5A134,101.5,0,0,0,180 102"></path><path id="kity_path_38" fill="none" stroke="rgb(115, 161, 191)" stroke-width="1" d="M260 102C275,102,275,90,290 90L344 90"></path><path id="kity_path_40" fill="none" stroke="rgb(115, 161, 191)" stroke-width="1" d="M260 102C275,102,275,144,290 144L368 144"></path><path id="kity_path_42" fill="none" stroke="rgb(115, 161, 191)" stroke-width="1" marker-end="url(#kity_marker_0)" d="M46 0.5A188,33.5,0,0,0,-142 -33"></path><path id="kity_path_44" fill="none" stroke="rgb(115, 161, 191)" stroke-width="1" marker-end="url(#kity_marker_0)" d="M46 0.5A185,34.5,0,0,1,-139 35"></path></g><g id="minder_node_1" transform="matrix( 1 0 0 1 0 0 )"><path id="kity_path_114" fill="rgba(0, 0, 0, .25)" stroke="none" d="M-16,-23h181a5,5,0,0,1,5,5v47a5,5,0,0,1,-5,5h-181a5,5,0,0,1,-5,-5v-47a5,5,0,0,1,5,-5z" display="none"></path><path id="node_outline_1" fill="rgb(115, 161, 191)" stroke="rgb(115, 161, 191)" d="M-19,-20h130a5,5,0,0,1,5,5v31a5,5,0,0,1,-5,5h-130a5,5,0,0,1,-5,-5v-31a5,5,0,0,1,5,-5z"></path><text id="node_text_1" text-rendering="inherit" dy="5.5" fill="white" font-size="16">我最喜爱的...</text></g><g id="kity_g_7"><path id="kity_path_8" fill="none" stroke="none" d="M0,0h0v0h0z"></path></g><g id="kity_g_9"><path id="kity_path_10" fill="none" stroke="none" d="M0,0h0v0h0z"></path><path id="kity_path_11" fill="none" stroke="none"></path></g><g id="minder_node_4" transform="matrix( 1 0 0 1 206 -172 )"><path id="kity_path_110" fill="rgba(0, 0, 0, .25)" stroke="none" d="M-11,-9h62a5,5,0,0,1,5,5v19a5,5,0,0,1,-5,5h-62a5,5,0,0,1,-5,-5v-19a5,5,0,0,1,5,-5z" display="none"></path><g id="node_expander_8" transform="translate( 54 0 )" style="cursor: pointer;"><path id="kity_path_93" fill="white" stroke="gray" d="M5,0A5,5,0,1,1,-5,0A5,5,0,1,1,5,0"></path><path id="kity_path_94" fill="none" stroke="black" d="M-3.5,0L3.5,0"></path></g><path id="node_outline_9" fill="rgb(238, 243, 246)" stroke="rgb(115, 161, 191)" d="M-17,-14h62a3,3,0,0,1,3,3v22a3,3,0,0,1,-3,3h-62a3,3,0,0,1,-3,-3v-22a3,3,0,0,1,3,-3z" stroke-width="1"></path><text id="node_text_9" text-rendering="inherit" dy="5" fill="black" font-size="14">发布</text></g><g id="minder_node_5" transform="matrix( 1 0 0 1 304 -307 )"><g id="node_expander_2" transform="translate( 39 0 )" style="cursor: pointer;"><path id="kity_path_75" fill="white" stroke="gray" d="M5,0A5,5,0,1,1,-5,0A5,5,0,1,1,5,0"></path><path id="kity_path_76" fill="none" stroke="black" d="M-3.5,0L3.5,0"></path></g><path id="node_outline_3" fill="none" stroke="none" d="M-5,-12h34a5,5,0,0,1,5,5v14a5,5,0,0,1,-5,5h-34a5,5,0,0,1,-5,-5v-14a5,5,0,0,1,5,-5z"></path><text id="node_text_3" text-rendering="inherit" dy="4" fill="black" font-size="12">美食</text></g><g id="minder_node_6" transform="matrix( 1 0 0 1 388 -307 )"><g id="node_expander_1" transform="translate( 0 0 )" display="none" style="cursor: pointer;"><path id="kity_path_72" fill="white" stroke="gray" d="M5,0A5,5,0,1,1,-5,0A5,5,0,1,1,5,0"></path><path id="kity_path_73" fill="none" stroke="black"></path></g><path id="node_outline_2" fill="none" stroke="none" d="M-5,-12h34a5,5,0,0,1,5,5v14a5,5,0,0,1,-5,5h-34a5,5,0,0,1,-5,-5v-14a5,5,0,0,1,5,-5z"></path><text id="node_text_2" text-rendering="inherit" dy="4" fill="black" font-size="12">周边</text></g><g id="minder_node_7" transform="matrix( 1 0 0 1 304 -253 )"><g id="node_expander_3" transform="translate( 0 0 )" display="none" style="cursor: pointer;"><path id="kity_path_78" fill="white" stroke="gray" d="M5,0A5,5,0,1,1,-5,0A5,5,0,1,1,5,0"></path><path id="kity_path_79" fill="none" stroke="black"></path></g><path id="node_outline_4" fill="none" stroke="none" d="M-5,-12h34a5,5,0,0,1,5,5v14a5,5,0,0,1,-5,5h-34a5,5,0,0,1,-5,-5v-14a5,5,0,0,1,5,-5z"></path><text id="node_text_4" text-rendering="inherit" dy="4" fill="black" font-size="12">图片</text></g><g id="minder_node_8" transform="matrix( 1 0 0 1 304 -199 )"><g id="node_expander_4" transform="translate( 0 0 )" display="none" style="cursor: pointer;"><path id="kity_path_81" fill="white" stroke="gray" d="M5,0A5,5,0,1,1,-5,0A5,5,0,1,1,5,0"></path><path id="kity_path_82" fill="none" stroke="black"></path></g><path id="node_outline_5" fill="none" stroke="none" d="M-5,-12h34a5,5,0,0,1,5,5v14a5,5,0,0,1,-5,5h-34a5,5,0,0,1,-5,-5v-14a5,5,0,0,1,5,-5z"></path><text id="node_text_5" text-rendering="inherit" dy="4" fill="black" font-size="12">歌曲</text></g><g id="minder_node_9" transform="matrix( 1 0 0 1 304 -145 )"><g id="node_expander_5" transform="translate( 0 0 )" display="none" style="cursor: pointer;"><path id="kity_path_84" fill="white" stroke="gray" d="M5,0A5,5,0,1,1,-5,0A5,5,0,1,1,5,0"></path><path id="kity_path_85" fill="none" stroke="black"></path></g><path id="node_outline_6" fill="none" stroke="none" d="M-5,-12h34a5,5,0,0,1,5,5v14a5,5,0,0,1,-5,5h-34a5,5,0,0,1,-5,-5v-14a5,5,0,0,1,5,-5z"></path><text id="node_text_6" text-rendering="inherit" dy="4" fill="black" font-size="12">笑话</text></g><g id="minder_node_10" transform="matrix( 1 0 0 1 304 -91 )"><g id="node_expander_6" transform="translate( 0 0 )" display="none" style="cursor: pointer;"><path id="kity_path_87" fill="white" stroke="gray" d="M5,0A5,5,0,1,1,-5,0A5,5,0,1,1,5,0"></path><path id="kity_path_88" fill="none" stroke="black"></path></g><path id="node_outline_7" fill="none" stroke="none" d="M-5,-12h34a5,5,0,0,1,5,5v14a5,5,0,0,1,-5,5h-34a5,5,0,0,1,-5,-5v-14a5,5,0,0,1,5,-5z"></path><text id="node_text_7" text-rendering="inherit" dy="4" fill="black" font-size="12">网站</text></g><g id="minder_node_11" transform="matrix( 1 0 0 1 304 -37 )"><g id="node_expander_7" transform="translate( 0 0 )" display="none" style="cursor: pointer;"><path id="kity_path_90" fill="white" stroke="gray" d="M5,0A5,5,0,1,1,-5,0A5,5,0,1,1,5,0"></path><path id="kity_path_91" fill="none" stroke="black"></path></g><path id="node_outline_8" fill="none" stroke="none" d="M-5,-12h46a5,5,0,0,1,5,5v14a5,5,0,0,1,-5,5h-46a5,5,0,0,1,-5,-5v-14a5,5,0,0,1,5,-5z"></path><text id="node_text_8" text-rendering="inherit" dy="4" fill="black" font-size="12">自定义</text></g><g id="minder_node_12" transform="matrix( 1 0 0 1 202 102 )"><path id="kity_path_111" fill="rgba(0, 0, 0, .25)" stroke="none" d="M-11,-9h62a5,5,0,0,1,5,5v19a5,5,0,0,1,-5,5h-62a5,5,0,0,1,-5,-5v-19a5,5,0,0,1,5,-5z" display="none"></path><g id="node_expander_11" transform="translate( 54 0 )" style="cursor: pointer;"><path id="kity_path_102" fill="white" stroke="gray" d="M5,0A5,5,0,1,1,-5,0A5,5,0,1,1,5,0"></path><path id="kity_path_103" fill="none" stroke="black" d="M-3.5,0L3.5,0"></path></g><path id="node_outline_12" fill="rgb(238, 243, 246)" stroke="rgb(115, 161, 191)" d="M-17,-14h62a3,3,0,0,1,3,3v22a3,3,0,0,1,-3,3h-62a3,3,0,0,1,-3,-3v-22a3,3,0,0,1,3,-3z" stroke-width="1"></path><text id="node_text_12" text-rendering="inherit" dy="5" fill="black" font-size="14">浏览</text></g><g id="minder_node_13" transform="matrix( 1 0 0 1 300 75 )"><g id="node_expander_9" transform="translate( 0 0 )" display="none" style="cursor: pointer;"><path id="kity_path_96" fill="white" stroke="gray" d="M5,0A5,5,0,1,1,-5,0A5,5,0,1,1,5,0"></path><path id="kity_path_97" fill="none" stroke="black"></path></g><path id="node_outline_10" fill="none" stroke="none" d="M-5,-12h34a5,5,0,0,1,5,5v14a5,5,0,0,1,-5,5h-34a5,5,0,0,1,-5,-5v-14a5,5,0,0,1,5,-5z"></path><text id="node_text_10" text-rendering="inherit" dy="4" fill="black" font-size="12">投票</text></g><g id="minder_node_14" transform="matrix( 1 0 0 1 300 129 )"><g id="node_expander_10" transform="translate( 0 0 )" display="none" style="cursor: pointer;"><path id="kity_path_99" fill="white" stroke="gray" d="M5,0A5,5,0,1,1,-5,0A5,5,0,1,1,5,0"></path><path id="kity_path_100" fill="none" stroke="black"></path></g><path id="node_outline_11" fill="none" stroke="none" d="M-5,-12h58a5,5,0,0,1,5,5v14a5,5,0,0,1,-5,5h-58a5,5,0,0,1,-5,-5v-14a5,5,0,0,1,5,-5z"></path><text id="node_text_11" text-rendering="inherit" dy="4" fill="black" font-size="12">添加条目</text></g><g id="minder_node_15" transform="matrix( 1 0 0 1 -220 -33 )"><path id="kity_path_112" fill="rgba(0, 0, 0, .25)" stroke="none" d="M-11,-9h94a5,5,0,0,1,5,5v19a5,5,0,0,1,-5,5h-94a5,5,0,0,1,-5,-5v-19a5,5,0,0,1,5,-5z" display="none"></path><g id="node_expander_12" transform="translate( 0 0 )" display="none" style="cursor: pointer;"><path id="kity_path_105" fill="white" stroke="gray" d="M5,0A5,5,0,1,1,-5,0A5,5,0,1,1,5,0"></path><path id="kity_path_106" fill="none" stroke="black"></path></g><path id="node_outline_13" fill="rgb(238, 243, 246)" stroke="rgb(115, 161, 191)" d="M-17,-14h90a3,3,0,0,1,3,3v22a3,3,0,0,1,-3,3h-90a3,3,0,0,1,-3,-3v-22a3,3,0,0,1,3,-3z" stroke-width="1"></path><text id="node_text_13" text-rendering="inherit" dy="5" fill="black" font-size="14">公开性质</text></g><g id="minder_node_16" transform="matrix( 1 0 0 1 -217 35 )"><path id="kity_path_113" fill="rgba(0, 0, 0, .25)" stroke="none" d="M-11,-9h94a5,5,0,0,1,5,5v19a5,5,0,0,1,-5,5h-94a5,5,0,0,1,-5,-5v-19a5,5,0,0,1,5,-5z" display="none"></path><g id="node_expander_13" transform="translate( 0 0 )" display="none" style="cursor: pointer;"><path id="kity_path_108" fill="white" stroke="gray" d="M5,0A5,5,0,1,1,-5,0A5,5,0,1,1,5,0"></path><path id="kity_path_109" fill="none" stroke="black"></path></g><path id="node_outline_14" fill="rgb(238, 243, 246)" stroke="rgb(115, 161, 191)" d="M-17,-14h90a3,3,0,0,1,3,3v22a3,3,0,0,1,-3,3h-90a3,3,0,0,1,-3,-3v-22a3,3,0,0,1,3,-3z" stroke-width="1"></path><text id="node_text_14" text-rendering="inherit" dy="5" fill="black" font-size="14">内部性质</text></g></g></g></svg>